# xmcd
#
# Track frame offsets: 
#        150
#        16579
#        34145
#        55622
#        78487
#        98890
#        114440
#        151832
#        180051
#        201374
#        220983
#        247866
#        270110
#        284446
#        315416
#
# Disc length: 4409 seconds
#
# Revision: 3
# Processed by: cddbd v1.5.2PL0 Copyright (c) Steve Scherf et al.
# Submitted via: ExactAudioCopyFreeDBPlugin 1.0
#
DISCID=b111370f
DTITLE=Snowy White Blues Project - In Our Time... Live
DYEAR=2010
DGENRE=Blues
TTITLE0=Blue To The Bone
TTITLE1=Good Morning Blues
TTITLE2=Simple
TTITLE3=Red Wine Blues
TTITLE4=Lonely Man Blues
TTITLE5=Long Grey Mare
TTITLE6=In Our Time Of Living
TTITLE7=Land Of Plenty
TTITLE8=Rolling With My Baby
TTITLE9=I'm So Glad
TTITLE10=Walk On
TTITLE11=Woman Across The River
TTITLE12=I Want To Thank You
TTITLE13=One Way Ticket
TTITLE14=World Keep On Turning
EXTD=YEAR: 2090
EXTT0=
EXTT1=
EXTT2=
EXTT3=
EXTT4=
EXTT5=
EXTT6=
EXTT7=
EXTT8=
EXTT9=
EXTT10=
EXTT11=
EXTT12=
EXTT13=
EXTT14=
PLAYORDER=
